<svg width="18" height="18" viewBox="0 0 18 18" fill="none" xmlns="http://www.w3.org/2000/svg">
<path d="M12.963 12.664C14.173 11.362 14.92 9.62298 14.92 7.70898C14.92 3.68798 11.649 0.415985 7.62702 0.415985C3.60602 0.415985 0.335022 3.68699 0.335022 7.70898C0.335022 11.73 3.60602 15.001 7.62702 15.001C9.37402 15.001 10.979 14.382 12.236 13.354L17.107 17.944L17.793 17.215L12.963 12.664ZM1.33402 7.70898C1.33402 4.23898 4.15702 1.41599 7.62602 1.41599C11.095 1.41599 13.919 4.23898 13.919 7.70898C13.919 11.178 11.096 14.001 7.62602 14.001C4.15602 14.001 1.33402 11.179 1.33402 7.70898Z" fill="black"/>
</svg>
