<svg width="16" height="22" viewBox="0 0 16 22" fill="none" xmlns="http://www.w3.org/2000/svg">
<path d="M12.295 5.77948V4.26948C12.295 4.22848 12.245 0.219482 7.953 0.219482C4.861 0.219482 3.814 2.72448 3.69 4.09448V5.77948H0V21.7795H16V5.77948H12.295ZM4.688 4.14048C4.699 4.02148 4.991 1.21948 7.953 1.21948C11.18 1.21948 11.293 3.95848 11.295 4.26948V5.77948H4.688V4.14048ZM15 20.7795H1V6.77948H3.69V10.7795C3.557 10.9095 3.474 11.0905 3.474 11.2915C3.474 11.6875 3.795 12.0085 4.19 12.0085C4.586 12.0085 4.907 11.6885 4.907 11.2915C4.907 11.0905 4.824 10.9095 4.69 10.7795L4.689 6.77948H11.295V10.7795C11.162 10.9095 11.078 11.0905 11.078 11.2915C11.078 11.6875 11.398 12.0085 11.795 12.0085C12.19 12.0085 12.512 11.6885 12.512 11.2915C12.512 11.0905 12.428 10.9105 12.295 10.7795V6.77948H15V20.7795Z" fill="black"/>
</svg>